<?xml version="1.0" encoding="UTF-8" standalone="no"?><svg xmlns="http://www.w3.org/2000/svg" xmlns:xlink="http://www.w3.org/1999/xlink" contentScriptType="application/ecmascript" contentStyleType="text/css" height="498px" preserveAspectRatio="none" style="width:301px;height:498px;" version="1.1" viewBox="0 0 301 498" width="301px" zoomAndPan="magnify"><defs><filter height="300%" id="f1alchtanmp7sc" width="300%" x="-1" y="-1"><feGaussianBlur result="blurOut" stdDeviation="2.0"/><feColorMatrix in="blurOut" result="blurOut2" type="matrix" values="0 0 0 0 0 0 0 0 0 0 0 0 0 0 0 0 0 0 .4 0"/><feOffset dx="4.0" dy="4.0" in="blurOut2" result="blurOut3"/><feBlend in="SourceGraphic" in2="blurOut3" mode="normal"/></filter></defs><g><!--MD5=[2e42295458bb0bec21c9622a623eb29e]
class Time--><rect fill="#FEFECE" filter="url(#f1alchtanmp7sc)" height="252.875" id="Time" style="stroke: #A80036; stroke-width: 1.5;" width="284" x="6" y="235"/><ellipse cx="129.25" cy="251" fill="#ADD1B2" rx="11" ry="11" style="stroke: #A80036; stroke-width: 1.0;"/><path d="M132.2188,256.6406 Q131.6406,256.9375 131,257.0781 Q130.3594,257.2344 129.6563,257.2344 Q127.1563,257.2344 125.8281,255.5938 Q124.5156,253.9375 124.5156,250.8125 Q124.5156,247.6875 125.8281,246.0313 Q127.1563,244.375 129.6563,244.375 Q130.3594,244.375 131,244.5313 Q131.6563,244.6875 132.2188,244.9844 L132.2188,247.7031 Q131.5938,247.125 131,246.8594 Q130.4063,246.5781 129.7813,246.5781 Q128.4375,246.5781 127.75,247.6563 Q127.0625,248.7188 127.0625,250.8125 Q127.0625,252.9063 127.75,253.9844 Q128.4375,255.0469 129.7813,255.0469 Q130.4063,255.0469 131,254.7813 Q131.5938,254.5 132.2188,253.9219 L132.2188,256.6406 Z "/><text fill="#000000" font-family="sans-serif" font-size="12" lengthAdjust="spacingAndGlyphs" textLength="29" x="149.75" y="255.1543">Time</text><line style="stroke: #A80036; stroke-width: 1.5;" x1="7" x2="289" y1="267" y2="267"/><rect fill="none" height="6" style="stroke: #C82930; stroke-width: 1.0;" width="6" x="14" y="275"/><text fill="#000000" font-family="sans-serif" font-size="11" lengthAdjust="spacingAndGlyphs" textLength="55" x="26" y="281.2104">hours: int</text><rect fill="none" height="6" style="stroke: #C82930; stroke-width: 1.0;" width="6" x="14" y="287.8047"/><text fill="#000000" font-family="sans-serif" font-size="11" lengthAdjust="spacingAndGlyphs" textLength="68" x="26" y="294.0151">minutes: int</text><rect fill="none" height="6" style="stroke: #C82930; stroke-width: 1.0;" width="6" x="14" y="300.6094"/><text fill="#000000" font-family="sans-serif" font-size="11" lengthAdjust="spacingAndGlyphs" textLength="70" x="26" y="306.8198">seconds: int</text><ellipse cx="17" cy="316.4141" fill="none" rx="3" ry="3" style="stroke: #038048; stroke-width: 1.0;"/><text fill="#000000" font-family="sans-serif" font-size="11" lengthAdjust="spacingAndGlyphs" textLength="72" x="26" y="319.6245">__dict__: dict</text><ellipse cx="17" cy="329.2188" fill="none" rx="3" ry="3" style="stroke: #038048; stroke-width: 1.0;"/><text fill="#000000" font-family="sans-serif" font-size="11" lengthAdjust="spacingAndGlyphs" textLength="101" x="26" y="332.4292">total_seconds: int</text><line style="stroke: #A80036; stroke-width: 1.5;" x1="7" x2="289" y1="339.0234" y2="339.0234"/><ellipse cx="17" cy="350.0234" fill="#84BE84" rx="3" ry="3" style="stroke: #038048; stroke-width: 1.0;"/><text fill="#000000" font-family="sans-serif" font-size="11" lengthAdjust="spacingAndGlyphs" textLength="258" x="26" y="353.2339">__init__(hours: int, minutes: int, seconds: int)</text><ellipse cx="17" cy="362.8281" fill="#84BE84" rx="3" ry="3" style="stroke: #038048; stroke-width: 1.0;"/><text fill="#000000" font-family="sans-serif" font-size="11" lengthAdjust="spacingAndGlyphs" textLength="72" x="26" y="366.0386">__str__(): str</text><ellipse cx="17" cy="375.6328" fill="#84BE84" rx="3" ry="3" style="stroke: #038048; stroke-width: 1.0;"/><text fill="#000000" font-family="sans-serif" font-size="11" lengthAdjust="spacingAndGlyphs" textLength="119" x="26" y="378.8433">__add__(other): Time</text><ellipse cx="17" cy="388.4375" fill="#84BE84" rx="3" ry="3" style="stroke: #038048; stroke-width: 1.0;"/><text fill="#000000" font-family="sans-serif" font-size="11" lengthAdjust="spacingAndGlyphs" textLength="119" x="26" y="391.6479">__sub__(other): Time</text><ellipse cx="17" cy="401.2422" fill="#84BE84" rx="3" ry="3" style="stroke: #038048; stroke-width: 1.0;"/><text fill="#000000" font-family="sans-serif" font-size="11" lengthAdjust="spacingAndGlyphs" textLength="186" x="26" y="404.4526">from_string(str_value: str): Time</text><ellipse cx="17" cy="414.0469" fill="#84BE84" rx="3" ry="3" style="stroke: #038048; stroke-width: 1.0;"/><text fill="#000000" font-family="sans-serif" font-size="11" lengthAdjust="spacingAndGlyphs" textLength="195" x="26" y="417.2573">from_seconds(seconds: int): Time</text><ellipse cx="17" cy="426.8516" fill="#84BE84" rx="3" ry="3" style="stroke: #038048; stroke-width: 1.0;"/><text fill="#000000" font-family="sans-serif" font-size="11" lengthAdjust="spacingAndGlyphs" textLength="145" x="26" y="430.062">save(filename: str): None</text><ellipse cx="17" cy="439.6563" fill="#84BE84" rx="3" ry="3" style="stroke: #038048; stroke-width: 1.0;"/><text fill="#000000" font-family="sans-serif" font-size="11" lengthAdjust="spacingAndGlyphs" textLength="141" x="26" y="442.8667">load(filename: str): Time</text><ellipse cx="17" cy="452.4609" fill="#84BE84" rx="3" ry="3" style="stroke: #038048; stroke-width: 1.0;"/><text fill="#000000" font-family="sans-serif" font-size="11" lengthAdjust="spacingAndGlyphs" textLength="160" x="26" y="455.6714">add_hours(hours: int): None</text><ellipse cx="17" cy="465.2656" fill="#84BE84" rx="3" ry="3" style="stroke: #038048; stroke-width: 1.0;"/><text fill="#000000" font-family="sans-serif" font-size="11" lengthAdjust="spacingAndGlyphs" textLength="186" x="26" y="468.4761">add_minutes(minutes: int): None</text><ellipse cx="17" cy="478.0703" fill="#84BE84" rx="3" ry="3" style="stroke: #038048; stroke-width: 1.0;"/><text fill="#000000" font-family="sans-serif" font-size="11" lengthAdjust="spacingAndGlyphs" textLength="190" x="26" y="481.2808">add_seconds(seconds: int): None</text><!--MD5=[8e233e1c76c5274ae957b4d03bc21835]
class Time_Collection--><rect fill="#FEFECE" filter="url(#f1alchtanmp7sc)" height="150.4375" id="Time_Collection" style="stroke: #A80036; stroke-width: 1.5;" width="228" x="34" y="8"/><ellipse cx="95.75" cy="24" fill="#ADD1B2" rx="11" ry="11" style="stroke: #A80036; stroke-width: 1.0;"/><path d="M98.7188,29.6406 Q98.1406,29.9375 97.5,30.0781 Q96.8594,30.2344 96.1563,30.2344 Q93.6563,30.2344 92.3281,28.5938 Q91.0156,26.9375 91.0156,23.8125 Q91.0156,20.6875 92.3281,19.0313 Q93.6563,17.375 96.1563,17.375 Q96.8594,17.375 97.5,17.5313 Q98.1563,17.6875 98.7188,17.9844 L98.7188,20.7031 Q98.0938,20.125 97.5,19.8594 Q96.9063,19.5781 96.2813,19.5781 Q94.9375,19.5781 94.25,20.6563 Q93.5625,21.7188 93.5625,23.8125 Q93.5625,25.9063 94.25,26.9844 Q94.9375,28.0469 96.2813,28.0469 Q96.9063,28.0469 97.5,27.7813 Q98.0938,27.5 98.7188,26.9219 L98.7188,29.6406 Z "/><text fill="#000000" font-family="sans-serif" font-size="12" lengthAdjust="spacingAndGlyphs" textLength="96" x="116.25" y="28.1543">Time_Collection</text><line style="stroke: #A80036; stroke-width: 1.5;" x1="35" x2="261" y1="40" y2="40"/><rect fill="none" height="6" style="stroke: #C82930; stroke-width: 1.0;" width="6" x="42" y="48"/><text fill="#000000" font-family="sans-serif" font-size="11" lengthAdjust="spacingAndGlyphs" textLength="95" x="54" y="54.2104">_data: List[Time]</text><line style="stroke: #A80036; stroke-width: 1.5;" x1="35" x2="261" y1="60.8047" y2="60.8047"/><ellipse cx="45" cy="71.8047" fill="#84BE84" rx="3" ry="3" style="stroke: #038048; stroke-width: 1.0;"/><text fill="#000000" font-family="sans-serif" font-size="11" lengthAdjust="spacingAndGlyphs" textLength="123" x="54" y="75.0151">__init__(*times: Time)</text><ellipse cx="45" cy="84.6094" fill="#84BE84" rx="3" ry="3" style="stroke: #038048; stroke-width: 1.0;"/><text fill="#000000" font-family="sans-serif" font-size="11" lengthAdjust="spacingAndGlyphs" textLength="72" x="54" y="87.8198">__str__(): str</text><ellipse cx="45" cy="97.4141" fill="#84BE84" rx="3" ry="3" style="stroke: #038048; stroke-width: 1.0;"/><text fill="#000000" font-family="sans-serif" font-size="11" lengthAdjust="spacingAndGlyphs" textLength="163" x="54" y="100.6245">__getitem__(index: int): Time</text><ellipse cx="45" cy="110.2188" fill="#84BE84" rx="3" ry="3" style="stroke: #038048; stroke-width: 1.0;"/><text fill="#000000" font-family="sans-serif" font-size="11" lengthAdjust="spacingAndGlyphs" textLength="127" x="54" y="113.4292">add(time: Time): None</text><ellipse cx="45" cy="123.0234" fill="#84BE84" rx="3" ry="3" style="stroke: #038048; stroke-width: 1.0;"/><text fill="#000000" font-family="sans-serif" font-size="11" lengthAdjust="spacingAndGlyphs" textLength="140" x="54" y="126.2339">remove(index: int): None</text><ellipse cx="45" cy="135.8281" fill="#84BE84" rx="3" ry="3" style="stroke: #038048; stroke-width: 1.0;"/><text fill="#000000" font-family="sans-serif" font-size="11" lengthAdjust="spacingAndGlyphs" textLength="145" x="54" y="139.0386">save(filename: str): None</text><ellipse cx="45" cy="148.6328" fill="#84BE84" rx="3" ry="3" style="stroke: #038048; stroke-width: 1.0;"/><text fill="#000000" font-family="sans-serif" font-size="11" lengthAdjust="spacingAndGlyphs" textLength="202" x="54" y="151.8433">load(filename: str): Time_Collection</text><!--MD5=[bf6b336edf4f946fceb75a41eeea23f6]
link Time_Collection to Time--><path d="M148,158.1 C148,181.77 148,208.67 148,234.95 " fill="none" id="Time_Collection-Time" style="stroke: #A80036; stroke-width: 1.0;"/><text fill="#000000" font-family="sans-serif" font-size="13" lengthAdjust="spacingAndGlyphs" textLength="70" x="149" y="201.0669">содержит</text><text fill="#000000" font-family="sans-serif" font-size="13" lengthAdjust="spacingAndGlyphs" textLength="8" x="139.5875" y="178.6693">1</text><text fill="#000000" font-family="sans-serif" font-size="13" lengthAdjust="spacingAndGlyphs" textLength="7" x="140.7867" y="223.8561">*</text><!--MD5=[2096d2e8aa7770511e3e959183853437]
@startuml
class Time {
 -hours: int
 -minutes: int
 -seconds: int
 +__init__(hours: int, minutes: int, seconds: int)
 +__str__(): str
 +__add__(other): Time
 +__sub__(other): Time
 +__dict__: dict
 +total_seconds: int
 +from_string(str_value: str): Time
 +from_seconds(seconds: int): Time
 +save(filename: str): None
 +load(filename: str): Time
 +add_hours(hours: int): None
 +add_minutes(minutes: int): None
 +add_seconds(seconds: int): None
}

class Time_Collection {
 -_data: List[Time]
 +__init__(*times: Time)
 +__str__(): str
 +__getitem__(index: int): Time
 +add(time: Time): None
 +remove(index: int): None
 +save(filename: str): None
 +load(filename: str): Time_Collection
}

Time_Collection "1" - - "*" Time: содержит
@enduml

PlantUML version 1.2020.08(Sun Apr 26 14:08:22 UTC 2020)
(GPL source distribution)
Java Runtime: OpenJDK Runtime Environment
JVM: OpenJDK 64-Bit Server VM
Java Version: 1.8.0_402-heroku-b06
Operating System: Linux
Default Encoding: UTF-8
Language: en
Country: US
--></g></svg>