<?xml version="1.0" encoding="UTF-8" standalone="no"?><svg xmlns="http://www.w3.org/2000/svg" xmlns:xlink="http://www.w3.org/1999/xlink" contentScriptType="application/ecmascript" contentStyleType="text/css" height="423px" preserveAspectRatio="none" style="width:639px;height:423px;" version="1.1" viewBox="0 0 639 423" width="639px" zoomAndPan="magnify"><defs><filter height="300%" id="f1otvvcdm24bun" width="300%" x="-1" y="-1"><feGaussianBlur result="blurOut" stdDeviation="2.0"/><feColorMatrix in="blurOut" result="blurOut2" type="matrix" values="0 0 0 0 0 0 0 0 0 0 0 0 0 0 0 0 0 0 .4 0"/><feOffset dx="4.0" dy="4.0" in="blurOut2" result="blurOut3"/><feBlend in="SourceGraphic" in2="blurOut3" mode="normal"/></filter></defs><g><!--MD5=[294b6789a12f26342b8ca7a731938c0b]
class ДенежныйПеревод--><rect fill="#FEFECE" filter="url(#f1otvvcdm24bun)" height="112.0234" id="ДенежныйПеревод" style="stroke: #A80036; stroke-width: 1.5;" width="233" x="200.5" y="8"/><ellipse cx="249.25" cy="24" fill="#ADD1B2" rx="11" ry="11" style="stroke: #A80036; stroke-width: 1.0;"/><path d="M252.2188,29.6406 Q251.6406,29.9375 251,30.0781 Q250.3594,30.2344 249.6563,30.2344 Q247.1563,30.2344 245.8281,28.5938 Q244.5156,26.9375 244.5156,23.8125 Q244.5156,20.6875 245.8281,19.0313 Q247.1563,17.375 249.6563,17.375 Q250.3594,17.375 251,17.5313 Q251.6563,17.6875 252.2188,17.9844 L252.2188,20.7031 Q251.5938,20.125 251,19.8594 Q250.4063,19.5781 249.7813,19.5781 Q248.4375,19.5781 247.75,20.6563 Q247.0625,21.7188 247.0625,23.8125 Q247.0625,25.9063 247.75,26.9844 Q248.4375,28.0469 249.7813,28.0469 Q250.4063,28.0469 251,27.7813 Q251.5938,27.5 252.2188,26.9219 L252.2188,29.6406 Z "/><text fill="#000000" font-family="sans-serif" font-size="12" lengthAdjust="spacingAndGlyphs" textLength="127" x="269.75" y="28.1543">ДенежныйПеревод</text><line style="stroke: #A80036; stroke-width: 1.5;" x1="201.5" x2="432.5" y1="40" y2="40"/><rect fill="none" height="6" style="stroke: #C82930; stroke-width: 1.0;" width="6" x="208.5" y="48"/><text fill="#000000" font-family="sans-serif" font-size="11" lengthAdjust="spacingAndGlyphs" textLength="69" x="220.5" y="54.2104">__сумма: int</text><rect fill="none" height="6" style="stroke: #C82930; stroke-width: 1.0;" width="6" x="208.5" y="60.8047"/><text fill="#000000" font-family="sans-serif" font-size="11" lengthAdjust="spacingAndGlyphs" textLength="99" x="220.5" y="67.0151">_получатель: str</text><line style="stroke: #A80036; stroke-width: 1.5;" x1="201.5" x2="432.5" y1="73.6094" y2="73.6094"/><ellipse cx="211.5" cy="84.6094" fill="#84BE84" rx="3" ry="3" style="stroke: #038048; stroke-width: 1.0;"/><text fill="#000000" font-family="sans-serif" font-size="11" lengthAdjust="spacingAndGlyphs" textLength="207" x="220.5" y="87.8198">__init__(сумма: int, получатель: str)</text><ellipse cx="211.5" cy="97.4141" fill="#84BE84" rx="3" ry="3" style="stroke: #038048; stroke-width: 1.0;"/><text fill="#000000" font-family="sans-serif" font-size="11" lengthAdjust="spacingAndGlyphs" textLength="110" x="220.5" y="100.6245">выполнить(): None</text><ellipse cx="211.5" cy="110.2188" fill="#84BE84" rx="3" ry="3" style="stroke: #038048; stroke-width: 1.0;"/><text fill="#000000" font-family="sans-serif" font-size="11" lengthAdjust="spacingAndGlyphs" textLength="144" x="220.5" y="113.4292">проверка_суммы(): None</text><!--MD5=[8ea4d92e33ba658c261961e13f40924f]
class ПочтовыйПеревод--><rect fill="#FEFECE" filter="url(#f1otvvcdm24bun)" height="86.4141" id="ПочтовыйПеревод" style="stroke: #A80036; stroke-width: 1.5;" width="294" x="6" y="180"/><ellipse cx="87.75" cy="196" fill="#ADD1B2" rx="11" ry="11" style="stroke: #A80036; stroke-width: 1.0;"/><path d="M90.7188,201.6406 Q90.1406,201.9375 89.5,202.0781 Q88.8594,202.2344 88.1563,202.2344 Q85.6563,202.2344 84.3281,200.5938 Q83.0156,198.9375 83.0156,195.8125 Q83.0156,192.6875 84.3281,191.0313 Q85.6563,189.375 88.1563,189.375 Q88.8594,189.375 89.5,189.5313 Q90.1563,189.6875 90.7188,189.9844 L90.7188,192.7031 Q90.0938,192.125 89.5,191.8594 Q88.9063,191.5781 88.2813,191.5781 Q86.9375,191.5781 86.25,192.6563 Q85.5625,193.7188 85.5625,195.8125 Q85.5625,197.9063 86.25,198.9844 Q86.9375,200.0469 88.2813,200.0469 Q88.9063,200.0469 89.5,199.7813 Q90.0938,199.5 90.7188,198.9219 L90.7188,201.6406 Z "/><text fill="#000000" font-family="sans-serif" font-size="12" lengthAdjust="spacingAndGlyphs" textLength="122" x="108.25" y="200.1543">ПочтовыйПеревод</text><line style="stroke: #A80036; stroke-width: 1.5;" x1="7" x2="299" y1="212" y2="212"/><rect fill="none" height="6" style="stroke: #C82930; stroke-width: 1.0;" width="6" x="14" y="220"/><text fill="#000000" font-family="sans-serif" font-size="11" lengthAdjust="spacingAndGlyphs" textLength="135" x="26" y="226.2104">__номер_передачи: str</text><line style="stroke: #A80036; stroke-width: 1.5;" x1="7" x2="299" y1="232.8047" y2="232.8047"/><ellipse cx="17" cy="243.8047" fill="#84BE84" rx="3" ry="3" style="stroke: #038048; stroke-width: 1.0;"/><text fill="#000000" font-family="sans-serif" font-size="11" lengthAdjust="spacingAndGlyphs" textLength="268" x="26" y="247.0151">__init__(сумма, получатель, номер_передачи)</text><ellipse cx="17" cy="256.6094" fill="#84BE84" rx="3" ry="3" style="stroke: #038048; stroke-width: 1.0;"/><text fill="#000000" font-family="sans-serif" font-size="11" lengthAdjust="spacingAndGlyphs" textLength="110" x="26" y="259.8198">выполнить(): None</text><!--MD5=[34a8c9246901b948a12b6704b034ee6e]
class БанковскийПеревод--><rect fill="#FEFECE" filter="url(#f1otvvcdm24bun)" height="86.4141" id="БанковскийПеревод" style="stroke: #A80036; stroke-width: 1.5;" width="293" x="335.5" y="180"/><ellipse cx="411.25" cy="196" fill="#ADD1B2" rx="11" ry="11" style="stroke: #A80036; stroke-width: 1.0;"/><path d="M414.2188,201.6406 Q413.6406,201.9375 413,202.0781 Q412.3594,202.2344 411.6563,202.2344 Q409.1563,202.2344 407.8281,200.5938 Q406.5156,198.9375 406.5156,195.8125 Q406.5156,192.6875 407.8281,191.0313 Q409.1563,189.375 411.6563,189.375 Q412.3594,189.375 413,189.5313 Q413.6563,189.6875 414.2188,189.9844 L414.2188,192.7031 Q413.5938,192.125 413,191.8594 Q412.4063,191.5781 411.7813,191.5781 Q410.4375,191.5781 409.75,192.6563 Q409.0625,193.7188 409.0625,195.8125 Q409.0625,197.9063 409.75,198.9844 Q410.4375,200.0469 411.7813,200.0469 Q412.4063,200.0469 413,199.7813 Q413.5938,199.5 414.2188,198.9219 L414.2188,201.6406 Z "/><text fill="#000000" font-family="sans-serif" font-size="12" lengthAdjust="spacingAndGlyphs" textLength="133" x="431.75" y="200.1543">БанковскийПеревод</text><line style="stroke: #A80036; stroke-width: 1.5;" x1="336.5" x2="627.5" y1="212" y2="212"/><rect fill="none" height="6" style="stroke: #C82930; stroke-width: 1.0;" width="6" x="343.5" y="220"/><text fill="#000000" font-family="sans-serif" font-size="11" lengthAdjust="spacingAndGlyphs" textLength="64" x="355.5" y="226.2104">__банк: str</text><line style="stroke: #A80036; stroke-width: 1.5;" x1="336.5" x2="627.5" y1="232.8047" y2="232.8047"/><ellipse cx="346.5" cy="243.8047" fill="#84BE84" rx="3" ry="3" style="stroke: #038048; stroke-width: 1.0;"/><text fill="#000000" font-family="sans-serif" font-size="11" lengthAdjust="spacingAndGlyphs" textLength="267" x="355.5" y="247.0151">__init__(сумма: int, получатель: str, банк: str)</text><ellipse cx="346.5" cy="256.6094" fill="#84BE84" rx="3" ry="3" style="stroke: #038048; stroke-width: 1.0;"/><text fill="#000000" font-family="sans-serif" font-size="11" lengthAdjust="spacingAndGlyphs" textLength="110" x="355.5" y="259.8198">выполнить(): None</text><!--MD5=[394543a9fe05f59bef0d94400fa8d745]
class ВалютныйПеревод--><rect fill="#FEFECE" filter="url(#f1otvvcdm24bun)" height="86.4141" id="ВалютныйПеревод" style="stroke: #A80036; stroke-width: 1.5;" width="275" x="344.5" y="326"/><ellipse cx="415.75" cy="342" fill="#ADD1B2" rx="11" ry="11" style="stroke: #A80036; stroke-width: 1.0;"/><path d="M418.7188,347.6406 Q418.1406,347.9375 417.5,348.0781 Q416.8594,348.2344 416.1563,348.2344 Q413.6563,348.2344 412.3281,346.5938 Q411.0156,344.9375 411.0156,341.8125 Q411.0156,338.6875 412.3281,337.0313 Q413.6563,335.375 416.1563,335.375 Q416.8594,335.375 417.5,335.5313 Q418.1563,335.6875 418.7188,335.9844 L418.7188,338.7031 Q418.0938,338.125 417.5,337.8594 Q416.9063,337.5781 416.2813,337.5781 Q414.9375,337.5781 414.25,338.6563 Q413.5625,339.7188 413.5625,341.8125 Q413.5625,343.9063 414.25,344.9844 Q414.9375,346.0469 416.2813,346.0469 Q416.9063,346.0469 417.5,345.7813 Q418.0938,345.5 418.7188,344.9219 L418.7188,347.6406 Z "/><text fill="#000000" font-family="sans-serif" font-size="12" lengthAdjust="spacingAndGlyphs" textLength="124" x="436.25" y="346.1543">ВалютныйПеревод</text><line style="stroke: #A80036; stroke-width: 1.5;" x1="345.5" x2="618.5" y1="358" y2="358"/><rect fill="none" height="6" style="stroke: #C82930; stroke-width: 1.0;" width="6" x="352.5" y="366"/><text fill="#000000" font-family="sans-serif" font-size="11" lengthAdjust="spacingAndGlyphs" textLength="80" x="364.5" y="372.2104">__валюта: str</text><line style="stroke: #A80036; stroke-width: 1.5;" x1="345.5" x2="618.5" y1="378.8047" y2="378.8047"/><ellipse cx="355.5" cy="389.8047" fill="#84BE84" rx="3" ry="3" style="stroke: #038048; stroke-width: 1.0;"/><text fill="#000000" font-family="sans-serif" font-size="11" lengthAdjust="spacingAndGlyphs" textLength="249" x="364.5" y="393.0151">__init__(сумма, получатель, банк, валюта)</text><ellipse cx="355.5" cy="402.6094" fill="#84BE84" rx="3" ry="3" style="stroke: #038048; stroke-width: 1.0;"/><text fill="#000000" font-family="sans-serif" font-size="11" lengthAdjust="spacingAndGlyphs" textLength="110" x="364.5" y="405.8198">выполнить(): None</text><!--MD5=[14323814dd3d8c36446db3b750a4f613]
reverse link ДенежныйПеревод to ПочтовыйПеревод--><path d="M244.5,134.41 C228.27,149.94 211.54,165.96 196.9,179.97 " fill="none" id="ДенежныйПеревод&lt;-ПочтовыйПеревод" style="stroke: #A80036; stroke-width: 1.0;"/><polygon fill="none" points="239.89,129.13,259.18,120.35,249.57,139.24,239.89,129.13" style="stroke: #A80036; stroke-width: 1.0;"/><!--MD5=[b228fcde2b219d73e50ed7c5e1ff623b]
reverse link ДенежныйПеревод to БанковскийПеревод--><path d="M389.95,134.41 C406.27,149.94 423.1,165.96 437.83,179.97 " fill="none" id="ДенежныйПеревод&lt;-БанковскийПеревод" style="stroke: #A80036; stroke-width: 1.0;"/><polygon fill="none" points="384.84,139.21,375.17,120.35,394.49,129.07,384.84,139.21" style="stroke: #A80036; stroke-width: 1.0;"/><!--MD5=[8a7859401211b74b79cc4e8afdcf3ce9]
reverse link БанковскийПеревод to ВалютныйПеревод--><path d="M482,286.29 C482,299.58 482,313.33 482,325.66 " fill="none" id="БанковскийПеревод&lt;-ВалютныйПеревод" style="stroke: #A80036; stroke-width: 1.0;"/><polygon fill="none" points="475,286.04,482,266.04,489,286.04,475,286.04" style="stroke: #A80036; stroke-width: 1.0;"/><!--MD5=[42a6687452ffc4f147d1862701c2e53a]
@startuml
class ДенежныйПеревод {
 -__сумма: int
 -_получатель: str
 +__init__(сумма: int, получатель: str)
 +выполнить(): None
 +проверка_суммы(): None
}

class ПочтовыйПеревод {
 -__номер_передачи: str
 +__init__(сумма, получатель, номер_передачи)
 +выполнить(): None
}

class БанковскийПеревод {
 -__банк: str
 +__init__(сумма: int, получатель: str, банк: str)
 +выполнить(): None
}

class ВалютныйПеревод {
 -__валюта: str
 +__init__(сумма, получатель, банк, валюта)
 +выполнить(): None
}

ДенежныйПеревод <|- - ПочтовыйПеревод
ДенежныйПеревод <|- - БанковскийПеревод
БанковскийПеревод <|- - ВалютныйПеревод
@enduml

PlantUML version 1.2020.08(Sun Apr 26 14:08:22 UTC 2020)
(GPL source distribution)
Java Runtime: OpenJDK Runtime Environment
JVM: OpenJDK 64-Bit Server VM
Java Version: 1.8.0_402-heroku-b06
Operating System: Linux
Default Encoding: UTF-8
Language: en
Country: US
--></g></svg>